<svg xmlns="http://www.w3.org/2000/svg">
    <symbol id="arrowBack" viewBox="0 0 30 24"><path fill="#9A9FA7" d="M28 13.5a1.5 1.5 0 0 0 0-3v3ZM.94 10.94a1.5 1.5 0 0 0 0 2.12l9.545 9.547a1.5 1.5 0 1 0 2.122-2.122L4.12 12l8.486-8.485a1.5 1.5 0 1 0-2.122-2.122L.94 10.94ZM28 10.5H2v3h26v-3Z"/></symbol>
    <symbol id="arrow" viewBox="0 0 18 16"><path d="M1 7a1 1 0 0 0 0 2V7Zm16.707 1.707a1 1 0 0 0 0-1.414L11.343.929A1 1 0 1 0 9.93 2.343L15.586 8l-5.657 5.657a1 1 0 0 0 1.414 1.414l6.364-6.364ZM1 9h16V7H1v2Z"/></symbol>
    <symbol id="star" viewBox="0 0 10 10"><path d="m5 0 1.123 3.455h3.632L6.816 5.59 7.94 9.045 5 6.91 2.061 9.045 3.184 5.59.244 3.455h3.633L5 0Z"/></symbol>
    <symbol id="prev" viewBox="0 0 9 15"><path stroke-linecap="round" d="m7.955 1.165-6.44 6.44 6.44 6.44"/></symbol>
    <symbol id="next" viewBox="0 0 9 15"><path stroke-linecap="round" d="m.955 14.045 6.44-6.44-6.44-6.44"/></symbol>
</svg>